<svg width="900" height="500" viewBox="0 0 900 500" fill="none" xmlns="http://www.w3.org/2000/svg">
<defs>
  <linearGradient id="sole" x1="140" y1="350" x2="740" y2="350" gradientUnits="userSpaceOnUse">
    <stop stop-color="#2F2F35"/>
    <stop offset="1" stop-color="#4A4A52"/>
  </linearGradient>
  <linearGradient id="upper" x1="180" y1="120" x2="710" y2="260" gradientUnits="userSpaceOnUse">
    <stop stop-color="#202126"/>
    <stop offset="1" stop-color="#090A0D"/>
  </linearGradient>
  <linearGradient id="accent" x1="510" y1="145" x2="650" y2="250" gradientUnits="userSpaceOnUse">
    <stop stop-color="#FFFFFF"/>
    <stop offset="1" stop-color="#B6BCC8"/>
  </linearGradient>
  <filter id="shadow" x="90" y="100" width="750" height="290" filterUnits="userSpaceOnUse" color-interpolation-filters="sRGB">
    <feDropShadow dx="0" dy="24" stdDeviation="16" flood-color="#000" flood-opacity="0.45"/>
  </filter>
</defs>
<ellipse cx="455" cy="375" rx="230" ry="28" fill="#000" fill-opacity="0.20"/>
<g filter="url(#shadow)">
  <path d="M162 312C188 307 214 299 242 270L313 196C338 171 374 156 413 152L523 141C566 136 610 147 648 174L736 236C753 248 766 266 772 286L780 314C781 319 777 324 772 324H179C166 324 157 315 162 312Z" fill="url(#upper)"/>
  <path d="M160 308H786C802 308 814 320 814 336V346C814 359 803 370 790 370H182C146 370 113 354 92 325L84 314C80 309 84 302 90 302H156C157 302 159 305 160 308Z" fill="url(#sole)"/>
  <path d="M538 164C585 165 629 184 665 216L716 261C721 265 718 272 711 274L650 287C643 288 636 286 630 281L534 206C528 201 526 192 530 185L538 164Z" fill="#6F737C"/>
  <path d="M579 171C614 183 644 201 670 226L697 252C670 257 647 257 626 246C600 232 575 209 556 179L579 171Z" fill="url(#accent)"/>
  <path d="M333 202C353 221 372 246 391 276" stroke="#2E323A" stroke-width="12" stroke-linecap="round"/>
  <path d="M289 223C315 236 339 254 361 279" stroke="#2E323A" stroke-width="12" stroke-linecap="round"/>
  <path d="M408 169L446 160L482 160" stroke="#A8AFBC" stroke-opacity="0.55" stroke-width="6" stroke-linecap="round"/>
  <path d="M673 248H754C761 248 767 254 767 261V328H673V248Z" fill="#1F2024"/>
  <ellipse cx="732" cy="289" rx="25" ry="27" fill="#2E3138"/>
  <ellipse cx="732" cy="289" rx="14" ry="15" fill="#14161B"/>
  <path d="M258 280C345 286 433 289 522 286" stroke="#494F59" stroke-opacity="0.5" stroke-width="6" stroke-linecap="round"/>
</g>
</svg>
