<svg width="500" height="260" viewBox="0 0 500 260" fill="none" xmlns="http://www.w3.org/2000/svg">
<ellipse cx="250" cy="220" rx="120" ry="18" fill="#000" fill-opacity="0.18"/>
<path d="M92 168C112 165 131 157 154 137L205 92C223 76 250 67 279 66L357 61C386 59 418 67 446 86L468 102C481 111 491 124 496 140L500 151C501 156 497 160 492 160H105C95 160 87 171 92 168Z" fill="#D7F9FF"/>
<path d="M84 159H492C500 159 507 166 507 174V181C507 191 498 199 488 199H114C85 199 58 187 40 164L35 158C32 154 35 149 40 149H81C83 149 84 157 84 159Z" fill="#ECEFF3"/>
<path d="M323 86C355 88 385 102 412 124L442 149C445 152 444 157 440 158L397 167C392 168 388 167 384 164L314 112C310 109 309 103 311 98L323 86Z" fill="#22E8FF"/>
<path d="M340 90C365 98 386 109 405 126L423 143C402 147 384 146 368 138C349 129 332 115 319 96L340 90Z" fill="#FFFFFF"/>
</svg>
